<svg xmlns="http://www.w3.org/2000/svg" width="28.605" height="22.244" viewBox="0 0 28.605 22.244"><path d="M13.922,8.024l-9.155,7.54V23.7a.8.8,0,0,0,.795.795l5.565-.014a.8.8,0,0,0,.791-.795V18.936a.8.8,0,0,1,.795-.795h3.178a.8.8,0,0,1,.795.795v4.749a.795.795,0,0,0,.795.8l5.563.015a.8.8,0,0,0,.795-.795V15.559L14.682,8.024A.605.605,0,0,0,13.922,8.024Zm14.462,5.125L24.232,9.727V2.849a.6.6,0,0,0-.6-.6H20.856a.6.6,0,0,0-.6.6V6.455L15.814,2.8a2.384,2.384,0,0,0-3.029,0L.215,13.149a.6.6,0,0,0-.079.839L1.4,15.528a.6.6,0,0,0,.84.081l11.68-9.621a.605.605,0,0,1,.76,0l11.681,9.621a.6.6,0,0,0,.839-.079l1.266-1.539a.6.6,0,0,0-.084-.841Z" transform="translate(0.001 -2.254)" fill="#fff"/></svg>