<svg xmlns="http://www.w3.org/2000/svg" width="28.661" height="21.496" viewBox="0 0 28.661 21.496"><path d="M27.989,10.77H24.637l-.931-2.329A6.238,6.238,0,0,0,17.885,4.5H10.776A6.24,6.24,0,0,0,4.955,8.441L4.023,10.77H.672a.671.671,0,0,0-.652.835l.336,1.343a.671.671,0,0,0,.652.509H2.132A3.558,3.558,0,0,0,.9,16.144v2.687a3.553,3.553,0,0,0,.9,2.347V24.2A1.792,1.792,0,0,0,3.583,26H5.374A1.792,1.792,0,0,0,7.165,24.2V22.413H21.5V24.2A1.792,1.792,0,0,0,23.287,26h1.791A1.792,1.792,0,0,0,26.87,24.2V21.178a3.551,3.551,0,0,0,.9-2.347V16.144a3.559,3.559,0,0,0-1.235-2.687h1.123a.671.671,0,0,0,.652-.509l.336-1.343a.672.672,0,0,0-.652-.835Zm-19.708-1a2.687,2.687,0,0,1,2.495-1.689h7.109A2.687,2.687,0,0,1,20.38,9.772L21.5,12.561H7.165L8.281,9.772ZM5.374,18.819a1.69,1.69,0,0,1-1.791-1.786,1.69,1.69,0,0,1,1.791-1.786,3.446,3.446,0,0,1,2.687,2.679C8.061,19,6.449,18.819,5.374,18.819Zm17.913,0c-1.075,0-2.687.179-2.687-.893a3.446,3.446,0,0,1,2.687-2.679,1.69,1.69,0,0,1,1.791,1.786,1.69,1.69,0,0,1-1.791,1.786Z" transform="translate(0 -4.5)" fill="#fff"/></svg>