<svg xmlns="http://www.w3.org/2000/svg" width="22.244" height="22.244" viewBox="0 0 22.244 22.244"><path d="M0,17.608v1.855c0,1.534,3.736,2.78,8.341,2.78s8.341-1.247,8.341-2.78V17.608c-1.794,1.264-5.074,1.855-8.341,1.855S1.794,18.872,0,17.608ZM13.9,5.561c4.605,0,8.341-1.247,8.341-2.78S18.508,0,13.9,0,5.561,1.247,5.561,2.78,9.3,5.561,13.9,5.561ZM0,13.051v2.242c0,1.534,3.736,2.78,8.341,2.78s8.341-1.247,8.341-2.78V13.051c-1.794,1.477-5.079,2.242-8.341,2.242S1.794,14.528,0,13.051Zm18.073.478c2.489-.482,4.171-1.377,4.171-2.407V9.267a10.669,10.669,0,0,1-4.171,1.5ZM8.341,6.951C3.736,6.951,0,8.507,0,10.427S3.736,13.9,8.341,13.9s8.341-1.555,8.341-3.476S12.947,6.951,8.341,6.951ZM17.869,9.4c2.607-.469,4.375-1.39,4.375-2.446V5.1c-1.542,1.09-4.192,1.677-6.982,1.816A4.865,4.865,0,0,1,17.869,9.4Z" fill="#fff"/></svg>