<svg xmlns="http://www.w3.org/2000/svg" xmlns:xlink="http://www.w3.org/1999/xlink" width="24" height="24" viewBox="0 0 24 24"><defs><clipPath id="a"><rect width="24" height="24" fill="none"/></clipPath></defs><g clip-path="url(#a)"><path d="M3.15,3.15A9.532,9.532,0,0,1,10.5,0a9.532,9.532,0,0,1,7.35,3.15A9.532,9.532,0,0,1,21,10.5a9.532,9.532,0,0,1-3.15,7.35A9.532,9.532,0,0,1,10.5,21a9.532,9.532,0,0,1-7.35-3.15A10.479,10.479,0,0,1,0,10.5,9.532,9.532,0,0,1,3.15,3.15ZM11.9,18.9a4.3,4.3,0,0,0,2.625-1.575A7.644,7.644,0,0,0,15.75,13.65a2.9,2.9,0,0,0-.875-2.1A3.081,3.081,0,0,0,12.6,10.5H10.85a5.11,5.11,0,0,1-1.575-.35A1.589,1.589,0,0,1,8.75,8.925a.909.909,0,0,1,.35-.7,1.327,1.327,0,0,1,.7-.35,1.194,1.194,0,0,1,.875.525c.35.175.525.35.7.35a1.052,1.052,0,0,0,.7-.175,1.052,1.052,0,0,0,.175-.7,2.785,2.785,0,0,0-.875-1.75A7.238,7.238,0,0,0,12.25,2.8a.376.376,0,0,0-.35-.35,5.41,5.41,0,0,0-1.4-.35A8.754,8.754,0,0,0,5.95,3.5,4.406,4.406,0,0,0,4.375,7a4.481,4.481,0,0,0,1.4,3.325,4.781,4.781,0,0,0,3.325,1.4h0v.7a2.247,2.247,0,0,0,.7,1.75,2.548,2.548,0,0,0,1.575,1.05v3.15c0,.175,0,.175.175.35S11.725,18.9,11.9,18.9Z" fill="#fff"/></g></svg>